<svg width="23" height="23" viewBox="0 0 23 23" fill="none" xmlns="http://www.w3.org/2000/svg">
<rect width="23" height="23" rx="5" fill="#1A2735"/>
<path d="M17.967 8.82205C17.9365 8.13131 17.8248 7.65643 17.6647 7.24494C17.4996 6.80815 17.2456 6.4171 16.9128 6.09201C16.5877 5.76187 16.194 5.50533 15.7622 5.34284C15.3482 5.18283 14.8757 5.07113 14.1849 5.04067C13.4888 5.00764 13.2679 5 11.5025 5C9.7372 5 9.51623 5.00764 8.82278 5.03809C8.1319 5.06855 7.65693 5.18035 7.24546 5.34026C6.8085 5.50533 6.41737 5.75929 6.09222 6.09201C5.76202 6.4171 5.50553 6.81073 5.34291 7.24246C5.18286 7.65643 5.07114 8.12873 5.04068 8.81947C5.00764 9.51537 5 9.73629 5 11.5013C5 13.2663 5.00764 13.4872 5.0381 14.1805C5.06856 14.8713 5.18038 15.3462 5.34043 15.7576C5.50553 16.1944 5.76202 16.5855 6.09222 16.9106C6.41737 17.2407 6.81108 17.4972 7.24288 17.6597C7.65693 17.8198 8.12932 17.9315 8.8203 17.9619C9.51365 17.9925 9.73471 18 11.5 18C13.2654 18 13.4863 17.9925 14.1798 17.9619C14.8707 17.9315 15.3456 17.8198 15.7571 17.6597C16.631 17.322 17.3218 16.6312 17.6597 15.7576C17.8196 15.3437 17.9314 14.8713 17.9619 14.1805C17.9924 13.4872 18 13.2663 18 11.5013C18 9.73629 17.9974 9.51537 17.967 8.82205ZM16.7961 14.1297C16.7681 14.7646 16.6614 15.1075 16.5725 15.336C16.354 15.9024 15.9045 16.3519 15.338 16.5703C15.1094 16.6592 14.764 16.7658 14.1315 16.7937C13.4457 16.8243 13.24 16.8318 11.5051 16.8318C9.77024 16.8318 9.56197 16.8243 8.87864 16.7937C8.24363 16.7658 7.90072 16.6592 7.67211 16.5703C7.39023 16.4661 7.13364 16.3011 6.92538 16.0852C6.70947 15.8744 6.54437 15.6204 6.44019 15.3386C6.35129 15.1101 6.24462 14.7646 6.21674 14.1323C6.18618 13.4466 6.17864 13.2409 6.17864 11.5063C6.17864 9.77181 6.18618 9.56358 6.21674 8.88048C6.24462 8.24559 6.35129 7.90274 6.44019 7.67418C6.54437 7.39225 6.70947 7.13581 6.92796 6.92749C7.1387 6.71163 7.39271 6.54656 7.67469 6.44249C7.9033 6.35361 8.24878 6.24697 8.88122 6.21899C9.56703 6.18854 9.77282 6.1809 11.5076 6.1809C13.245 6.1809 13.4507 6.18854 14.1341 6.21899C14.7691 6.24697 15.112 6.35361 15.3406 6.44249C15.6225 6.54656 15.8791 6.71163 16.0873 6.92749C16.3032 7.13829 16.4683 7.39225 16.5725 7.67418C16.6614 7.90274 16.7681 8.24807 16.7961 8.88048C16.8265 9.56616 16.8342 9.77181 16.8342 11.5063C16.8342 13.2409 16.8265 13.4441 16.7961 14.1297Z" fill="white"/>
<path d="M11.5 8C9.56774 8 8 9.56764 8 11.5C8 13.4324 9.56774 15 11.5 15C13.4324 15 15 13.4324 15 11.5C15 9.56764 13.4324 8 11.5 8ZM11.5 13.7704C10.2465 13.7704 9.22964 12.7537 9.22964 11.5C9.22964 10.2463 10.2465 9.22964 11.5 9.22964C12.7537 9.22964 13.7704 10.2463 13.7704 11.5C13.7704 12.7537 12.7537 13.7704 11.5 13.7704Z" fill="white"/>
<path d="M16 8C16 8.55223 15.5523 9 14.9999 9C14.4477 9 14 8.55223 14 8C14 7.44764 14.4477 7 14.9999 7C15.5523 7 16 7.44764 16 8Z" fill="white"/>
</svg>
