<svg width="63" height="64" viewBox="0 0 63 64" fill="none" xmlns="http://www.w3.org/2000/svg">
<path d="M19.9175 21.2616V23.5365H19.5967V21.5574H18.4358L18.1688 22.9853C18.1034 23.3556 17.8601 23.5365 17.5187 23.5365H17.3301V23.2234H17.4944C17.6882 23.2234 17.8152 23.1412 17.8486 22.9519L18.1695 21.261H19.9175V21.2616Z" fill="#78818C"/>
<path d="M20.8619 21.2599V23.1158L22.5406 21.2599H22.8699V23.5349H22.549V21.6918L20.8741 23.5349H20.541V21.2599H20.8619Z" fill="#78818C"/>
<path d="M25.5403 21.2599V21.5558H23.816V23.5349H23.4951V21.2599H25.5403Z" fill="#78818C"/>
<path d="M27.2453 21.2599L28.2124 23.5349H27.8748L27.7144 23.1652H26.0151L25.8547 23.5349H25.5088L26.5003 21.2599H27.2453ZM26.139 22.8681H27.579L27.0361 21.5513H26.6992L26.139 22.8681Z" fill="#78818C"/>
<path d="M32.1536 21.2599V21.5558H30.4293V23.5349H30.1084V21.2599H32.1536Z" fill="#78818C"/>
<path d="M34.5978 21.2599V21.5513H32.9107V22.2225H34.4252V22.5145H32.9107V23.2397H34.6594V23.5355H32.5898V21.2606H34.5978V21.2599Z" fill="#78818C"/>
<path d="M36.4795 21.2599C36.9935 21.2599 37.3971 21.6052 37.3971 22.1237C37.3971 22.6505 36.9896 22.9836 36.4795 22.9836H35.4752V23.5349H35.1543V21.2599H36.4795ZM35.4752 22.6878H36.475C36.8286 22.6878 37.0756 22.4779 37.0756 22.1237C37.0756 21.7784 36.8286 21.5558 36.475 21.5558H35.4752V22.6878Z" fill="#78818C"/>
<path d="M39.075 23.5926C38.3589 23.5926 37.8076 23.119 37.8076 22.3989C37.8076 21.6789 38.3595 21.206 39.075 21.206C39.7912 21.206 40.3418 21.6796 40.3418 22.3989C40.3418 23.1196 39.7912 23.5926 39.075 23.5926ZM39.075 23.3044C39.6013 23.3044 40.0171 22.9714 40.0171 22.3989C40.0171 21.8272 39.6013 21.4941 39.075 21.4941C38.5437 21.4941 38.1323 21.8272 38.1285 22.3989C38.1323 22.9714 38.5437 23.3044 39.075 23.3044Z" fill="#78818C"/>
<path d="M42.8722 21.2599V21.5513H41.1851V22.2225H42.6996V22.5145H41.1851V23.2397H42.9338V23.5355H40.8643V21.2606H42.8722V21.2599Z" fill="#78818C"/>
<path d="M44.8678 21.2599C45.2708 21.2599 45.5544 21.4858 45.5544 21.8272C45.5544 22.0332 45.4806 22.177 45.3452 22.2719C45.5795 22.3663 45.7194 22.5767 45.7194 22.8443C45.7194 23.2223 45.4235 23.5349 44.9583 23.5349H43.4277V21.2599H44.8678ZM43.748 22.1936H44.9165C45.1264 22.1936 45.2374 22.0454 45.2374 21.8811C45.2374 21.704 45.1431 21.5564 44.8383 21.5564H43.748V22.1936ZM43.748 23.239H44.9409C45.2496 23.239 45.3978 23.0613 45.3978 22.8476C45.3978 22.6172 45.2381 22.4811 45.007 22.4811H43.748V23.239Z" fill="#78818C"/>
<path d="M29.3725 17.5359L28.4767 17.2433L27.2741 15.9765L29.2788 16.4784L29.7563 16.907V15.9335L25.8456 11.6179L27.6835 11.5075L15.9263 0.884946L17.1944 3.83177L12.9365 0L17.5878 7.75274L19.5688 9.5098L20.1624 10.9287L18.7089 9.62146L21.6994 14.5833L25.1929 15.4567L27.6899 17.7041H29.4322L29.7556 18.5877L29.7563 17.7041L30.6412 17.4596L29.3725 17.5359Z" fill="#78818C"/>
<path d="M33.6759 17.5359L34.5718 17.2433L35.7744 15.9765L33.7696 16.4784L33.2922 16.907V15.9335L37.2029 11.6179L35.365 11.5075L47.1221 0.884946L45.854 3.83177L50.1119 0L45.4607 7.75274L43.4796 9.5098L42.886 10.9287L44.3396 9.62146L41.3491 14.5833L37.8555 15.4567L35.3585 17.7041H33.6162L33.2928 18.5877L33.2922 17.7041L32.4072 17.4596L33.6759 17.5359Z" fill="#78818C"/>
<path d="M62.6162 45.412H0V48.4609H62.6162V45.412Z" fill="#ED1C24"/>
<path d="M7.27414 42.8278H4.47363V31.2368H12.9522V33.5554H7.27414V42.8278Z" fill="white"/>
<path d="M24.3516 39.682C24.3516 40.841 24.1052 41.6829 23.6124 42.2072C23.1195 42.7315 22.3289 42.9934 21.2399 42.9934H17.351C16.262 42.9934 15.4714 42.7315 14.9785 42.2072C14.4857 41.6829 14.2393 40.841 14.2393 39.682V34.3833C14.2393 33.2243 14.4857 32.3823 14.9785 31.8581C15.4707 31.3338 16.262 31.0719 17.351 31.0719H21.2399C22.3289 31.0719 23.1195 31.3344 23.6124 31.8581C24.1046 32.3823 24.3516 33.2243 24.3516 34.3833V39.682ZM21.5511 34.3833C21.5511 33.721 21.2399 33.3899 20.6181 33.3899H17.9735C17.351 33.3899 17.0404 33.721 17.0404 34.3833V39.682C17.0404 40.3443 17.3517 40.6754 17.9735 40.6754H20.6181C21.2405 40.6754 21.5511 40.3443 21.5511 39.682V34.3833Z" fill="white"/>
<path d="M35.544 42.8278H32.7441V38.1085H28.8552V42.8278H26.0547V31.2368H28.8552V35.7905H32.7441V31.2368H35.544V42.8278Z" fill="white"/>
<path d="M43.9638 36.9495L46.9972 42.8278H44.0414L41.6305 38.1085H40.2302V42.8278H37.4297V31.2368H40.2302V35.7905H41.6305L43.186 32.6441C43.4145 32.1802 43.6968 31.8022 44.0337 31.5096C44.3706 31.2169 44.8141 31.0706 45.364 31.0706C45.5399 31.0706 45.7112 31.079 45.8774 31.0956C46.043 31.1123 46.1938 31.1316 46.3286 31.1534C46.4839 31.1868 46.6289 31.2144 46.7643 31.2362V33.4713H46.1412C45.9859 33.4713 45.846 33.524 45.7208 33.6286C45.5963 33.7338 45.5033 33.8467 45.441 33.968L43.9638 36.9495Z" fill="white"/>
<path d="M50.8762 42.8278H47.8428L51.9652 31.2368H55.0764L59.1988 42.8278H56.1654L55.4652 40.7582H51.5764L50.8762 42.8278ZM52.2765 38.6052H54.7658L53.5208 34.7144L52.2765 38.6052Z" fill="white"/>
<path d="M2.93528 62.8908H0.134766V51.2999H8.61331V53.6184H2.93528V62.8908Z" fill="white"/>
<path d="M18.6924 62.8908H10.0586V51.2999H18.6924V53.6184H12.8585V55.8536H17.4475V58.1722H12.8585V60.5729H18.6924V62.8908Z" fill="white"/>
<path d="M20.2119 51.2999H26.746C27.835 51.2999 28.6256 51.5623 29.1185 52.086C29.6107 52.6103 29.8578 53.4522 29.8578 54.6112V56.2669C29.8578 57.4258 29.6113 58.2678 29.1185 58.7921C28.6256 59.3164 27.835 59.5788 26.746 59.5788H23.0124V62.8908H20.2119V51.2999ZM27.0566 54.6118C27.0566 53.9496 26.7454 53.6184 26.1235 53.6184H23.0124V57.2615H26.1235C26.746 57.2615 27.0566 56.9304 27.0566 56.2681V54.6118Z" fill="white"/>
<path d="M41.4141 59.745C41.4141 60.904 41.1677 61.746 40.6749 62.2703C40.182 62.7946 39.3914 63.0564 38.3024 63.0564H34.4135C33.3245 63.0564 32.5339 62.7946 32.041 62.2703C31.5482 61.746 31.3018 60.904 31.3018 59.745V54.4463C31.3018 53.2873 31.5482 52.4454 32.041 51.9211C32.5332 51.3968 33.3245 51.1349 34.4135 51.1349H38.3024C39.3914 51.1349 40.182 51.3974 40.6749 51.9211C41.1671 52.4454 41.4141 53.2873 41.4141 54.4463V59.745ZM38.6136 54.4463C38.6136 53.784 38.3024 53.4529 37.6806 53.4529H35.036C34.4135 53.4529 34.1029 53.784 34.1029 54.4463V59.745C34.1029 60.4073 34.4141 60.7384 35.036 60.7384H37.6806C38.303 60.7384 38.6136 60.4073 38.6136 59.745V54.4463Z" fill="white"/>
<path d="M51.75 62.8908H43.1162V51.2999H51.75V53.6184H45.9161V55.8536H50.5051V58.1722H45.9161V60.5729H51.75V62.8908Z" fill="white"/>
<path d="M53.2705 51.2999H59.4934C60.5092 51.2999 61.2562 51.5456 61.7336 52.0366C62.2105 52.5275 62.4492 53.2758 62.4492 54.2801C62.4492 54.9423 62.3144 55.4807 62.0449 55.8947C61.7754 56.3086 61.4436 56.5986 61.0496 56.7642C61.2774 56.8303 61.5058 56.9355 61.7336 57.0786C61.9615 57.2224 62.1617 57.4156 62.3324 57.6581C62.5037 57.9013 62.6436 58.1965 62.7527 58.5444C62.8612 58.8922 62.9164 59.292 62.9164 59.745C62.9164 60.827 62.6776 61.6221 62.2008 62.1297C61.724 62.6373 60.977 62.8914 59.9605 62.8914H53.2705V51.2999ZM59.6487 54.6118C59.6487 53.9496 59.3374 53.6184 58.7149 53.6184H56.0704V55.937H58.7149C59.3374 55.937 59.6487 55.6059 59.6487 54.9436V54.6118ZM60.1152 59.2483C60.1152 58.5861 59.804 58.2549 59.1821 58.2549H56.071V60.5735H59.1821C59.8046 60.5735 60.1152 60.2424 60.1152 59.5801V59.2483Z" fill="white"/>
</svg>
