<svg width="23" height="23" viewBox="0 0 23 23" fill="none" xmlns="http://www.w3.org/2000/svg">
<rect width="23" height="23" rx="5" fill="#1A2735"/>
<path fill-rule="evenodd" clip-rule="evenodd" d="M11.3188 16.5122H12.213C12.213 16.5122 12.483 16.4825 12.6209 16.3336C12.7479 16.1969 12.7438 15.9402 12.7438 15.9402C12.7438 15.9402 12.7263 14.7384 13.2832 14.5614C13.8321 14.3871 14.537 15.7229 15.2841 16.2365C15.8491 16.6253 16.2784 16.54 16.2784 16.54L18.276 16.5122C18.276 16.5122 19.3211 16.4477 18.8256 15.6247C18.7849 15.5573 18.537 15.0158 17.3403 13.9032C16.0877 12.7386 16.2554 12.927 17.7643 10.9126C18.6832 9.6858 19.0506 8.93683 18.9358 8.61605C18.8264 8.31052 18.1505 8.39128 18.1505 8.39128L15.9012 8.40531C15.9012 8.40531 15.7345 8.38253 15.6108 8.45657C15.49 8.52919 15.4122 8.69843 15.4122 8.69843C15.4122 8.69843 15.0562 9.64776 14.5814 10.4551C13.5799 12.1587 13.1794 12.2486 13.0157 12.1428C12.6349 11.8963 12.73 11.1524 12.73 10.6239C12.73 8.97304 12.98 8.28469 12.2432 8.1065C11.9987 8.0473 11.8188 8.00825 11.1935 8.00194C10.3909 7.9936 9.71165 8.00438 9.32702 8.19315C9.07114 8.31866 8.87375 8.59835 8.99397 8.61442C9.14262 8.63436 9.47933 8.70535 9.65783 8.94883C9.88833 9.2629 9.8802 9.96834 9.8802 9.96834C9.8802 9.96834 10.0126 11.9118 9.57092 12.1532C9.26772 12.3188 8.85182 11.9807 7.95889 10.4352C7.50135 9.64349 7.15592 8.7684 7.15592 8.7684C7.15592 8.7684 7.08931 8.60486 6.97051 8.51739C6.82632 8.41141 6.62487 8.37765 6.62487 8.37765L4.48748 8.39168C4.48748 8.39168 4.16662 8.40063 4.04883 8.54038C3.94405 8.66466 4.04051 8.92178 4.04051 8.92178C4.04051 8.92178 5.71387 12.8432 7.60858 14.8193C9.34591 16.6312 11.3188 16.5122 11.3188 16.5122Z" fill="white"/>
</svg>
